<?xml version="1.0" encoding="UTF-8" standalone="no"?>
<svg
   version="1.1"
   width="200"
   height="192"
   id="svg149"
   sodipodi:docname="appbar.settings.svg"
   xml:space="preserve"
   inkscape:version="1.4.2 (f4327f4, 2025-05-13)"
   xmlns:inkscape="http://www.inkscape.org/namespaces/inkscape"
   xmlns:sodipodi="http://sodipodi.sourceforge.net/DTD/sodipodi-0.dtd"
   xmlns="http://www.w3.org/2000/svg"
   xmlns:svg="http://www.w3.org/2000/svg"><defs
     id="defs149" /><sodipodi:namedview
     id="namedview149"
     pagecolor="#ffffff"
     bordercolor="#000000"
     borderopacity="0.25"
     inkscape:showpageshadow="2"
     inkscape:pageopacity="0.0"
     inkscape:pagecheckerboard="0"
     inkscape:deskcolor="#d1d1d1"
     inkscape:zoom="2.1015625"
     inkscape:cx="196.28253"
     inkscape:cy="122.52788"
     inkscape:window-width="2560"
     inkscape:window-height="1369"
     inkscape:window-x="-8"
     inkscape:window-y="-8"
     inkscape:window-maximized="1"
     inkscape:current-layer="svg149" /><style
     type="text/css"
     id="style1">
<![CDATA[
	.st0{fill:#000000;}
]]>
</style><g
     style="fill:#000000;stroke:#000000;stroke-opacity:1;stroke-width:0.68569414;stroke-dasharray:none"
     id="g3"
     transform="matrix(7.2918809,0,0,7.2918809,-2.0863072,-6.0866897)"><path
       d="m 14,9.50006 c -2.4853,0 -4.5,2.01474 -4.5,4.50004 0,2.4852 2.0147,4.5 4.5,4.5 1.3488,0 2.559,-0.5935 3.3838,-1.5335 0.6949,-0.792 1.1162,-1.8301 1.1162,-2.9665 0,-0.46 -0.069,-0.9038 -0.1972,-1.3217 C 17.7382,10.8381 16.0253,9.50006 14,9.50006 Z m -3,4.50004 c 0,-1.6569 1.3431,-3 3,-3 1.6569,0 3,1.3431 3,3 0,1.6568 -1.3431,3 -3,3 -1.6569,0 -3,-1.3432 -3,-3 z"
       fill="#212121"
       id="path1"
       style="fill:#000000;stroke:#000000;stroke-opacity:1;stroke-width:0.68569414;stroke-dasharray:none" /><path
       d="m 21.7093,22.3948 -1.7275,-0.7584 c -0.4942,-0.2167 -1.0747,-0.1849 -1.5418,0.0855 -0.4671,0.2705 -0.765,0.7474 -0.8243,1.2847 l -0.2077,1.8789 c -0.0429,0.3875 -0.324,0.7062 -0.7025,0.7965 -1.7792,0.4241 -3.633,0.4241 -5.4122,0 -0.3785,-0.0903 -0.6597,-0.409 -0.7025,-0.7965 L 10.3834,23.0093 C 10.3225,22.4731 10.0112,21.9976 9.54452,21.7281 9.07783,21.4586 8.51117,21.4269 8.01859,21.6424 L 6.29071,22.4009 C 5.93281,22.558 5.51493,22.4718 5.24806,22.1859 4.00474,20.8536 3.07924,19.2561 2.54122,17.5137 c -0.11589,-0.3753 0.018,-0.783 0.33368,-1.016 l 1.52729,-1.1274 c 0.43502,-0.3202 0.69195,-0.8288 0.69195,-1.3696 0,-0.5409 -0.25693,-1.0495 -0.69252,-1.3701 L 2.87529,11.5051 C 2.55914,11.272 2.42513,10.8638 2.54142,10.4882 3.08038,8.74734 4.00637,7.15163 5.24971,5.82114 5.51684,5.53528 5.93492,5.44941 6.29276,5.60691 l 1.7202,0.75713 C 8.50793,6.58168 9.07696,6.54881 9.54617,6.27415 10.0133,6.00264 10.3244,5.52527 10.3844,4.98794 L 10.5933,3.11017 C 10.637,2.71803 10.9245,2.39704 11.3089,2.31138 12.19,2.11504 13.0891,2.01071 14.0131,2.00006 c 0.9016,0.01041 1.7997,0.11479 2.6797,0.31143 0.3842,0.08585 0.6715,0.40674 0.7151,0.79868 l 0.2091,1.8792 c 0.0946,0.86284 0.8217,1.51635 1.6885,1.51726 0.233,3.7e-4 0.4635,-0.04825 0.6788,-0.14369 l 1.7205,-0.75726 c 0.3578,-0.1575 0.7759,-0.07163 1.043,0.21423 1.2434,1.33049 2.1694,2.9262 2.7083,4.66709 0.1162,0.3753 -0.0175,0.7833 -0.3333,1.0165 l -1.525,1.1262 C 23.1628,12.95 22.9,13.4586 22.9,13.9994 c 0,0.5409 0.2628,1.0495 0.6988,1.3704 l 1.5263,1.1267 c 0.3159,0.2331 0.4497,0.6411 0.3335,1.0166 -0.5388,1.7405 -1.4642,3.3361 -2.7069,4.6668 -0.2668,0.2858 -0.6846,0.3719 -1.0424,0.2149 z M 16.263,22.1966 c 0.2352,-0.7281 0.7259,-1.3678 1.4254,-1.7728 0.8818,-0.5106 1.9652,-0.5691 2.8957,-0.1611 l 1.344,0.5899 c 0.8629,-0.9988 1.5312,-2.1513 1.97,-3.3974 l -1.1886,-0.8774 -9e-4,-7e-4 C 21.898,15.98 21.4,15.0277 21.4,13.9994 c 0,-1.0275 0.4974,-1.9799 1.3073,-2.5767 l 0.0012,-9e-4 1.1872,-0.8768 C 23.4567,9.2988 22.7881,8.14636 21.9248,7.1477 L 20.5922,7.73425 20.5899,7.73527 C 20.1844,7.91463 19.7472,8.00722 19.3039,8.00663 17.6715,8.00453 16.3046,6.77431 16.1261,5.15465 L 16.1259,5.15291 15.9635,3.69304 C 15.3202,3.57328 14.6677,3.50872 14.013,3.50017 13.3389,3.50891 12.6821,3.57367 12.0377,3.69328 L 11.8751,5.15452 C 11.7625,6.16272 11.1793,7.05909 10.3019,7.56986 9.41937,8.0856 8.34453,8.14844 7.40869,7.73694 L 6.07273,7.14893 C 5.20949,8.14751 4.54092,9.29983 4.10196,10.5459 l 1.18985,0.8774 c 0.81934,0.6036 1.30233,1.5604 1.30233,2.5774 0,1.0166 -0.48272,1.9735 -1.30177,2.5769 l -1.19076,0.879 c 0.43841,1.2478 1.10689,2.4019 1.97044,3.4021 l 1.34537,-0.5905 c 0.93003,-0.4069 1.99831,-0.3467 2.87728,0.161 0.8793,0.5078 1.4646,1.4028 1.5791,2.4108 l 6e-4,0.0045 0.1618,1.4643 c 1.2964,0.255 2.63,0.255 3.9264,0 l 0.1621,-1.467 c 0.0244,-0.2201 0.0708,-0.4363 0.1383,-0.6452 z"
       fill="#212121"
       id="path2"
       style="fill:#000000;stroke:#000000;stroke-opacity:1;stroke-width:0.68569414;stroke-dasharray:none" /></g></svg>
