<?xml version="1.0" encoding="UTF-8" standalone="no"?>
<svg
   version="1.1"
   width="200"
   height="192"
   id="svg149"
   sodipodi:docname="appbar.textsize.svg"
   xml:space="preserve"
   inkscape:version="1.4.2 (f4327f4, 2025-05-13)"
   xmlns:inkscape="http://www.inkscape.org/namespaces/inkscape"
   xmlns:sodipodi="http://sodipodi.sourceforge.net/DTD/sodipodi-0.dtd"
   xmlns="http://www.w3.org/2000/svg"
   xmlns:svg="http://www.w3.org/2000/svg"><defs
     id="defs149" /><sodipodi:namedview
     id="namedview149"
     pagecolor="#ffffff"
     bordercolor="#000000"
     borderopacity="0.25"
     inkscape:showpageshadow="2"
     inkscape:pageopacity="0.0"
     inkscape:pagecheckerboard="0"
     inkscape:deskcolor="#d1d1d1"
     inkscape:zoom="2.1015625"
     inkscape:cx="63.048327"
     inkscape:cy="104.4461"
     inkscape:window-width="2560"
     inkscape:window-height="1369"
     inkscape:window-x="-8"
     inkscape:window-y="-8"
     inkscape:window-maximized="1"
     inkscape:current-layer="svg149" /><style
     type="text/css"
     id="style1">
<![CDATA[
	.st0{fill:#000000;}
]]>
</style><g
     id="g11"
     transform="translate(1.1268316,-1.9033457)"
     style="stroke:#000000;stroke-opacity:1;stroke-width:5;stroke-dasharray:none;fill:#000000"><g
       style="fill:#000000;stroke:#000000;stroke-opacity:1;stroke-width:0.60714775;stroke-dasharray:none"
       id="g6"
       transform="matrix(8.2352277,0,0,8.2352277,0.14715875,12.667954)"><path
         d="m 16.5106,3.00008 c 0.3136,0.00444 0.5913,0.20354 0.6962,0.49911 l 5.5,15.50001 c 0.1385,0.3904 -0.0657,0.8191 -0.456,0.9576 -0.3904,0.1385 -0.8191,-0.0656 -0.9577,-0.456 L 19.8735,15.5 h -7.1177 l -1.5564,4.0207 C 11.0499,19.907 10.6155,20.099 10.2292,19.9494 9.84293,19.7999 9.651,19.3655 9.80053,18.9793 L 15.8005,3.47925 C 15.9137,3.18678 16.197,2.99563 16.5106,3.00008 Z M 16.4694,5.90659 13.3364,14 h 6.0048 z"
         fill="#212121"
         id="path1"
         style="stroke:#000000;stroke-opacity:1;stroke-width:0.60714775;stroke-dasharray:none;fill:#000000" /><path
         d="m 5.50005,10.5014 0.2872,0.0099 c 1.96058,0.0975 3.12741,1.226 3.20825,3.0442 L 9,13.7604 v 5.5 c 0,0.3797 -0.28215,0.6935 -0.64823,0.7431 L 8.25,20.0104 c -0.3797,0 -0.69349,-0.2822 -0.74315,-0.6483 L 7.5,19.2604 7.49865,19.156 c -0.98757,0.5654 -1.9011,0.8544 -2.74865,0.8544 -1.83842,0 -3.25,-1.2945 -3.25,-3.25 0,-1.7244 1.18843,-3.0055 3.1597,-3.2446 0.9323,-0.113 1.87983,-0.0422 2.83883,0.2097 C 7.4887,12.6184 6.94255,12.0706 5.71275,12.0095 4.75051,11.9616 4.07429,12.0967 3.67825,12.3744 3.33911,12.6123 2.87139,12.5301 2.63357,12.191 2.39576,11.8518 2.47789,11.3841 2.81703,11.1463 3.47484,10.685 4.37072,10.4807 5.50005,10.5014 Z M 7.499,15.3241 7.19613,15.2338 C 6.38875,15.0117 5.60483,14.9486 4.8403,15.0413 3.60791,15.1908 3,15.8461 3,16.7967 c 0,1.0967 0.7124,1.75 1.75,1.75 0.68032,0 1.51848,-0.3143 2.50129,-0.9637 L 7.499,17.4141 Z"
         fill="#212121"
         id="path2"
         style="stroke:#000000;stroke-opacity:1;stroke-width:0.60714775;stroke-dasharray:none;fill:#000000" /></g></g></svg>
