<?xml version="1.0" encoding="UTF-8" standalone="no"?>
<svg
   version="1.1"
   width="200"
   height="192"
   id="svg149"
   sodipodi:docname="appbar.pageview.svg"
   xml:space="preserve"
   inkscape:version="1.4.2 (f4327f4, 2025-05-13)"
   xmlns:inkscape="http://www.inkscape.org/namespaces/inkscape"
   xmlns:sodipodi="http://sodipodi.sourceforge.net/DTD/sodipodi-0.dtd"
   xmlns="http://www.w3.org/2000/svg"
   xmlns:svg="http://www.w3.org/2000/svg"><defs
     id="defs149" /><sodipodi:namedview
     id="namedview149"
     pagecolor="#ffffff"
     bordercolor="#000000"
     borderopacity="0.25"
     inkscape:showpageshadow="2"
     inkscape:pageopacity="0.0"
     inkscape:pagecheckerboard="0"
     inkscape:deskcolor="#d1d1d1"
     inkscape:zoom="2.1015625"
     inkscape:cx="63.048327"
     inkscape:cy="104.4461"
     inkscape:window-width="2560"
     inkscape:window-height="1369"
     inkscape:window-x="-8"
     inkscape:window-y="-8"
     inkscape:window-maximized="1"
     inkscape:current-layer="g1" /><style
     type="text/css"
     id="style1">
<![CDATA[
	.st0{fill:#000000;}
]]>
</style><g
     id="g1"
     style="stroke:#000000;stroke-opacity:1;stroke-width:2;stroke-dasharray:none;fill:#000000"><path
       d="m 153.90603,2.2582961 c 11.1648,0 20.30365,8.6734619 21.04522,19.6497279 l 0.0487,1.444233 V 168.64774 c 0,11.1648 -8.6729,20.30364 -19.64926,21.04521 l -1.44471,0.0488 H 46.09396 c -11.164424,0 -20.303077,-8.6729 -21.045304,-19.64926 l -0.04866,-1.4447 V 23.352257 c 0,-11.164517 8.673461,-20.3031709 19.649727,-21.0453039 l 1.444233,-0.04866 z m 0,14.0626409 H 46.09396 c -3.559629,0 -6.501533,2.645183 -6.967101,6.077217 l -0.06422,0.954103 V 168.64774 c 0,3.55972 2.645277,6.50163 6.077217,6.96757 l 0.954104,0.0637 H 153.90603 c 3.55973,0 6.50163,-2.64471 6.96757,-6.07693 l 0.0637,-0.95439 V 23.352257 c 0,-3.559723 -2.64471,-6.501533 -6.07693,-6.9671 z"
       fill="#212121"
       id="path1"
       style="stroke-width:2;stroke:#000000;stroke-opacity:1;stroke-dasharray:none;fill:#000000" /><path
       d="m 45.197026,34.029597 c 0,-2.437885 2.934935,-4.41422 6.555485,-4.41422 H 126.048 c 3.62037,0 6.55548,1.976335 6.55548,4.41422 0,2.437945 -2.93511,4.414224 -6.55548,4.414224 H 51.752511 c -3.62055,0 -6.555485,-1.976279 -6.555485,-4.414224 z"
       fill="#212121"
       id="path3"
       style="stroke-width:2;stroke:#000000;stroke-opacity:1;stroke-dasharray:none;fill:#000000" /><path
       d="m 45.197026,50.683881 c 0,-2.43789 2.934935,-4.41422 6.555485,-4.41422 H 126.048 c 3.62037,0 6.55548,1.97633 6.55548,4.41422 0,2.43794 -2.93511,4.41422 -6.55548,4.41422 H 51.752511 c -3.62055,0 -6.555485,-1.97628 -6.555485,-4.41422 z"
       fill="#212121"
       id="path18"
       style="stroke-width:2;stroke:#000000;stroke-opacity:1;stroke-dasharray:none;fill:#000000" /><path
       d="m 45.197026,67.338151 c 0,-2.43789 1.75259,-4.41422 3.914592,-4.41422 h 44.365378 c 2.161895,0 3.914589,1.97633 3.914589,4.41422 0,2.43794 -1.752694,4.41422 -3.914589,4.41422 H 49.111618 c -2.162002,0 -3.914592,-1.97628 -3.914592,-4.41422 z"
       fill="#212121"
       id="path19"
       style="stroke-width:2;stroke:#000000;stroke-opacity:1;stroke-dasharray:none;fill:#000000" /><path
       d="m 45.197026,108.0276 c 0,-2.43788 2.934935,-4.41422 6.555485,-4.41422 H 126.048 c 3.62037,0 6.55548,1.97634 6.55548,4.41422 0,2.43795 -2.93511,4.41422 -6.55548,4.41422 H 51.752511 c -3.62055,0 -6.555485,-1.97627 -6.555485,-4.41422 z"
       fill="#212121"
       id="path3-6"
       style="stroke-width:2;stroke:#000000;stroke-opacity:1;stroke-dasharray:none;fill:#000000" /><path
       d="m 45.197026,124.68187 c 0,-2.43789 2.934935,-4.41422 6.555485,-4.41422 H 126.048 c 3.62037,0 6.55548,1.97633 6.55548,4.41422 0,2.43794 -2.93511,4.41422 -6.55548,4.41422 H 51.752511 c -3.62055,0 -6.555485,-1.97628 -6.555485,-4.41422 z"
       fill="#212121"
       id="path18-8"
       style="stroke-width:2;stroke:#000000;stroke-opacity:1;stroke-dasharray:none;fill:#000000" /><path
       d="m 45.197026,141.33615 c 0,-2.43789 1.75259,-4.41422 3.914592,-4.41422 h 44.365377 c 2.161895,0 3.914589,1.97633 3.914589,4.41422 0,2.43794 -1.752694,4.41422 -3.914589,4.41422 H 49.111618 c -2.162002,0 -3.914592,-1.97628 -3.914592,-4.41422 z"
       fill="#212121"
       id="path19-5"
       style="stroke-width:2;stroke:#000000;stroke-opacity:1;stroke-dasharray:none;fill:#000000" /><path
       id="🎨-Color"
       style="fill:#000000;fill-rule:nonzero;stroke:#000000;stroke-width:2;stroke-dasharray:none;stroke-opacity:1"
       d="m 128.12275,146.4265 c 0,0.95971 0.36541,1.92012 1.09766,2.65234 l 10,10 0.42187,0.36328 c 1.46803,1.08926 3.55145,0.96804 4.88281,-0.36328 l 10,-10 0.36133,-0.42187 c 1.0893,-1.46806 0.97004,-3.5515 -0.36133,-4.88282 -1.4645,-1.46445 -3.84018,-1.46445 -5.30468,0 l -3.59766,3.59961 V 72.979232 l 3.59766,3.59961 0.42187,0.36133 c 1.46803,1.08929 3.55144,0.97003 4.88281,-0.36133 1.4645,-1.4645 1.4645,-3.84019 0,-5.30469 l -10,-10 -0.42187,-0.36133 c -1.46803,-1.0893 -3.55144,-0.97004 -4.88281,0.36133 l -10,10 -0.36133,0.42188 c -1.0893,1.46803 -0.97005,3.55144 0.36133,4.88281 1.46449,1.4645 3.84018,1.4645 5.30468,0 l 3.59766,-3.59961 v 74.394528 l -3.59766,-3.59961 -0.42187,-0.36328 c -1.46803,-1.08926 -3.55145,-0.96804 -4.88281,0.36328 -0.73225,0.73223 -1.09766,1.69263 -1.09766,2.65235 z" /></g></svg>
