<?xml version="1.0" encoding="UTF-8" standalone="no"?>
<svg
   height="24px"
   viewBox="0 -960 960 960"
   width="24px"
   fill="#434343"
   version="1.1"
   id="svg1"
   sodipodi:docname="appbar.typeset.svg"
   inkscape:version="1.4.2 (f4327f4, 2025-05-13)"
   xmlns:inkscape="http://www.inkscape.org/namespaces/inkscape"
   xmlns:sodipodi="http://sodipodi.sourceforge.net/DTD/sodipodi-0.dtd"
   xmlns="http://www.w3.org/2000/svg"
   xmlns:svg="http://www.w3.org/2000/svg">
  <defs
     id="defs1" />
  <sodipodi:namedview
     id="namedview1"
     pagecolor="#ffffff"
     bordercolor="#000000"
     borderopacity="0.25"
     inkscape:showpageshadow="2"
     inkscape:pageopacity="0.0"
     inkscape:pagecheckerboard="0"
     inkscape:deskcolor="#d1d1d1"
     inkscape:zoom="6.078125"
     inkscape:cx="-30.190231"
     inkscape:cy="-18.508997"
     inkscape:window-width="2560"
     inkscape:window-height="1369"
     inkscape:window-x="-8"
     inkscape:window-y="-8"
     inkscape:window-maximized="1"
     inkscape:current-layer="svg1" />
  <path
     d="M 504.35,-68 V -191.69 L 725.5,-411.85 c 6.19333,-6.12667 12.92,-10.58 20.18,-13.36 7.26667,-2.78 14.53,-4.17 21.79,-4.17 7.92,0 15.65,1.34333 23.19,4.03 7.54667,2.69333 14.39,7.06667 20.53,13.12 l 37,38.38 c 6.30667,6.31333 10.80667,13.03333 13.5,20.16 2.69333,7.12667 4.04,14.58667 4.04,22.38 0,7.79333 -1.39,15.41 -4.17,22.85 -2.78,7.44 -7.23667,14.20667 -13.37,20.3 L 628.04,-68 Z m 300.69,-263.31 -37,-37.38 z m -240,202.62 h 38 l 129.84,-130.47 -18,-19.39 -19,-18.37 -130.84,130.23 z M 192.58,-68 c -27.35333,0 -50.57667,-9.546667 -69.67,-28.64 -19.09333,-19.09333 -28.64,-42.31667 -28.64,-69.67 v -627.38 c 0,-27.35333 9.54667,-50.57667 28.64,-69.67 19.09333,-19.09333 42.31667,-28.64 69.67,-28.64 h 311.69 l 250,252 v 76.92 h -86 V -598 h -208 V -806 H 192.58 c -3.08,0 -5.9,1.28333 -8.46,3.85 -2.56667,2.56 -3.85,5.38 -3.85,8.46 v 627.38 c 0,3.08 1.28333,5.9 3.85,8.46 2.56,2.56667 5.38,3.85 8.46,3.85 h 224.07 v 86 z m 522.3,-210.55 -19,-18.37 37,37.76 z"
     id="path1"
     style="fill:#000000"
     sodipodi:nodetypes="ccccscccssscccccccccccccsssssscccccccscsscsccscccc" />
  <path
     d="m 449.79623,-315.37438 c 5.858,5.858 5.858,15.356 0,21.214 l -89.9994,89.998 c -5.8578,5.858 -15.3554,5.858 -21.2132,0 -5.8578,-5.858 -5.8578,-15.354 0,-21.212 l 90.0006,-90 c 5.858,-5.858 15.354,-5.858 21.212,0 z m 54.394,-164.394 c 7.576,0 13.962,5.6486 14.888,13.1674 l 2.78,22.592 c 3.644,29.6046 26.96801,52.9286 56.57202,56.5726 l 22.59201,2.78 c 7.51997,0.926 13.16797,7.312 13.16797,14.888 0,7.576 -5.648,13.962 -13.16797,14.888 l -22.59201,2.78 c -29.60401,3.644 -52.92802,26.968 -56.57202,56.572 l -2.78,22.592 c -0.926,7.52 -7.312,13.168 -14.888,13.168 -7.576,0 -13.962,-5.648 -14.888,-13.168 l -2.78,-22.592 c -3.644,-29.604 -26.968,-52.928 -56.572,-56.572 l -22.592,-2.78 c -7.52,-0.926 -13.168,-7.312 -13.168,-14.888 0,-7.576 5.648,-13.962 13.168,-14.888 l 22.592,-2.78 c 29.604,-3.644 52.928,-26.968 56.572,-56.5726 l 2.78,-22.592 c 0.926,-7.5188 7.312,-13.1674 14.888,-13.1674 z m -119.496,180 -30.0012,30 h -125.5028 c -8.2842,0 -15,-6.716 -15,-15 0,-7.594 5.643,-13.87 12.9646,-14.864 l 2.0354,-0.1361 z m 119.496,-104.51 c -8.3,14.296 -20.214,26.21 -34.51,34.51 14.296,8.3 26.21,20.214 34.51,34.51 8.3,-14.296 20.214,-26.21 34.51001,-34.51 -14.29601,-8.3 -26.21001,-20.214 -34.51001,-34.51 z m -128.548,24.51 c -0.946,3.176 -1.452,6.536 -1.452,10 0,6.3394 1.6956,12.3218 4.6789,17.4874 l 1.5971,2.5126 h -151.276 c -8.2842,0 -15,-6.716 -15,-15 0,-6.9036 4.6636,-12.718 11.0124,-14.4649 l 1.9522,-0.399 2.0354,-0.1362 z m 63.548,-80 c 8.284,0 15,6.7158 15,15 0,7.594 -5.644,13.87 -12.964,14.864 l -2.036,0.1358 h -210 c -8.2842,0 -15,-6.716 -15,-15 0,-7.594 5.643,-13.8698 12.9646,-14.863 l 2.0354,-0.1366 z m 160,-80 c 8.28402,0 15,6.7158 15,15 0,7.594 -5.64397,13.8698 -12.96398,14.863 l -2.03602,0.1372 h -370 c -8.2842,0 -15,-6.7158 -15,-15.0001 0,-7.594 5.643,-13.8698 12.9646,-14.863 l 2.0354,-0.1368 z"
     id="🎨-Color"
     style="display:inline;fill:#212121;fill-rule:nonzero;stroke:none;stroke-width:20" />
</svg>
