<?xml version="1.0" encoding="UTF-8" standalone="no"?>
<svg
   version="1.1"
   width="200"
   height="192"
   id="svg149"
   sodipodi:docname="appbar.crop.svg"
   xml:space="preserve"
   inkscape:version="1.4.2 (f4327f4, 2025-05-13)"
   xmlns:inkscape="http://www.inkscape.org/namespaces/inkscape"
   xmlns:sodipodi="http://sodipodi.sourceforge.net/DTD/sodipodi-0.dtd"
   xmlns="http://www.w3.org/2000/svg"
   xmlns:svg="http://www.w3.org/2000/svg"><defs
     id="defs149" /><sodipodi:namedview
     id="namedview149"
     pagecolor="#ffffff"
     bordercolor="#000000"
     borderopacity="0.25"
     inkscape:showpageshadow="2"
     inkscape:pageopacity="0.0"
     inkscape:pagecheckerboard="0"
     inkscape:deskcolor="#d1d1d1"
     inkscape:zoom="2.1015625"
     inkscape:cx="63.048327"
     inkscape:cy="104.4461"
     inkscape:window-width="2560"
     inkscape:window-height="1369"
     inkscape:window-x="-8"
     inkscape:window-y="-8"
     inkscape:window-maximized="1"
     inkscape:current-layer="svg149" /><style
     type="text/css"
     id="style1">
<![CDATA[
	.st0{fill:#000000;}
]]>
</style><path
     d="m 180.93761,139.75001 c 3.62437,0 6.5625,2.93813 6.5625,6.5625 0,3.32234 -2.46884,6.06805 -5.672,6.50259 l -0.8905,0.0599 h -24.0625 v 24.0625 c 0,3.62437 -2.93813,6.5625 -6.5625,6.5625 -3.32234,0 -6.06805,-2.46885 -6.50259,-5.672 l -0.0599,-0.8905 V 152.875 H 71.562625 c -15.16403,0 -27.5559,-11.86898 -28.39248,-26.82379 l -0.045,-1.61371 -0.009,-72.187505 h -24.05376 c -3.62437,0 -6.5625,-2.93813 -6.5625,-6.5625 0,-3.32234 2.46885,-6.06805 5.67201,-6.50259 l 0.89049,-0.0599 h 24.05375 l 0.009,-24.0625 c 0,-3.62437 2.93813,-6.5625 6.5625,-6.5625 3.32234,0 6.06805,2.46885 6.50259,5.67201 l 0.0599,0.89049 -0.009,24.0625 h 0.009 v 13.125 h -0.009 l 0.009,72.187495 c 0,8.03401 6.18722,14.62293 14.05664,15.26174 l 1.25586,0.0508 z M 65.000115,39.125005 h 63.437495 c 15.16402,0 27.5559,11.86898 28.39248,26.82379 l 0.045,1.61371 v 63.437505 h -13.125 V 67.562505 c 0,-8.03402 -6.18721,-14.62293 -14.05664,-15.26174 l -1.25586,-0.0508 H 65.000095 Z"
     id="🎨-Color"
     style="fill:#000000;fill-rule:nonzero;stroke:#000000;stroke-width:5;stroke-opacity:1;stroke-dasharray:none" /></svg>
