<?xml version="1.0" encoding="UTF-8" standalone="no"?>
<svg
   version="1.1"
   width="200"
   height="192"
   id="svg149"
   sodipodi:docname="appbar.search.svg"
   xml:space="preserve"
   inkscape:version="1.4.2 (f4327f4, 2025-05-13)"
   xmlns:inkscape="http://www.inkscape.org/namespaces/inkscape"
   xmlns:sodipodi="http://sodipodi.sourceforge.net/DTD/sodipodi-0.dtd"
   xmlns="http://www.w3.org/2000/svg"
   xmlns:svg="http://www.w3.org/2000/svg"><defs
     id="defs149" /><sodipodi:namedview
     id="namedview149"
     pagecolor="#ffffff"
     bordercolor="#000000"
     borderopacity="0.25"
     inkscape:showpageshadow="2"
     inkscape:pageopacity="0.0"
     inkscape:pagecheckerboard="0"
     inkscape:deskcolor="#d1d1d1"
     inkscape:zoom="2.1015625"
     inkscape:cx="196.75836"
     inkscape:cy="122.52788"
     inkscape:window-width="2560"
     inkscape:window-height="1369"
     inkscape:window-x="-8"
     inkscape:window-y="-8"
     inkscape:window-maximized="1"
     inkscape:current-layer="svg149" /><path
     d="m 80.555549,8.5000033 c 37.586071,0 68.055571,30.4695037 68.055571,68.0555467 0,16.692416 -6.00971,31.98119 -15.98345,43.82075 l 53.16376,53.16558 c 2.27809,2.27804 2.27809,5.97151 0,8.24956 -2.07096,2.071 -5.31165,2.25922 -7.59532,0.56486 l -0.65424,-0.56486 -53.16558,-53.16376 c -11.83956,9.97374 -27.128339,15.98345 -43.820741,15.98345 -37.586043,0 -68.055547,-30.4695 -68.055547,-68.05558 0,-37.586043 30.469504,-68.0555467 68.055547,-68.0555467 z m 0,11.6666677 c -31.142718,0 -56.388879,25.246161 -56.388879,56.388879 0,31.14271 25.246161,56.38889 56.388879,56.38889 31.142691,0 56.388881,-25.24618 56.388881,-56.38889 0,-31.142718 -25.24619,-56.388879 -56.388881,-56.388879 z"
     id="🎨-Color"
     style="display:none;fill:#212121;fill-rule:nonzero;stroke:none;stroke-width:7.77774" /><g
     style="fill:#000000"
     id="g1"
     transform="matrix(2.9246832,0,0,2.9246832,-46.513045,-50.676668)"><path
       d="M 79.5,74.1 62.9,57.6 C 66.3,52.9 68,46.9 67.1,40.5 65.6,29.8 56.9,21.3 46,20.3 31.3,18.8 18.8,31.3 20.3,46.1 c 1,10.7 9.5,19.6 20.2,21.1 6.4,0.9 12.3,-0.9 17.1,-4.2 l 16.6,16.6 c 0.7,0.7 1.9,0.7 2.6,0 L 79.4,77 c 0.8,-0.9 0.8,-2.1 0.1,-2.9 z M 27.7,43.7 c 0,-8.8 7.2,-16.1 16.1,-16.1 8.9,0 16.1,7.2 16.1,16.1 0,8.9 -7.2,16.1 -16.1,16.1 -8.9,0 -16.1,-7.1 -16.1,-16.1 z"
       id="path1" /></g></svg>
