<?xml version="1.0" encoding="UTF-8" standalone="no"?>
<svg
   version="1.1"
   width="200"
   height="192"
   id="svg149"
   sodipodi:docname="appbar.menu.svg"
   xml:space="preserve"
   inkscape:version="1.4.2 (f4327f4, 2025-05-13)"
   xmlns:inkscape="http://www.inkscape.org/namespaces/inkscape"
   xmlns:sodipodi="http://sodipodi.sourceforge.net/DTD/sodipodi-0.dtd"
   xmlns="http://www.w3.org/2000/svg"
   xmlns:svg="http://www.w3.org/2000/svg"><defs
     id="defs149" /><sodipodi:namedview
     id="namedview149"
     pagecolor="#ffffff"
     bordercolor="#000000"
     borderopacity="0.25"
     inkscape:showpageshadow="2"
     inkscape:pageopacity="0.0"
     inkscape:pagecheckerboard="0"
     inkscape:deskcolor="#d1d1d1"
     inkscape:zoom="2.1015625"
     inkscape:cx="63.048327"
     inkscape:cy="97.30855"
     inkscape:window-width="2560"
     inkscape:window-height="1369"
     inkscape:window-x="-8"
     inkscape:window-y="-8"
     inkscape:window-maximized="1"
     inkscape:current-layer="svg149" /><style
     type="text/css"
     id="style1">
<![CDATA[
	.st0{fill:#000000;}
]]>
</style><path
     d="m 74.14773,103.95455 c 9.88464,0 17.89772,8.01308 17.89772,17.89772 v 43.75 c 0,9.88465 -8.01308,17.89773 -17.89772,17.89773 h -43.75 C 20.51308,183.5 12.5,175.48692 12.5,165.60227 v -43.75 c 0,-9.88464 8.01308,-17.89772 17.89773,-17.89772 z m 95.45454,0 c 9.88465,0 17.89773,8.01308 17.89773,17.89772 v 43.75 c 0,9.88465 -8.01308,17.89773 -17.89773,17.89773 h -43.75 c -9.88464,0 -17.89772,-8.01308 -17.89772,-17.89773 v -43.75 c 0,-9.88464 8.01308,-17.89772 17.89772,-17.89772 z m -95.45454,11.93181 h -43.75 c -3.29488,0 -5.96591,2.67103 -5.96591,5.96591 v 43.75 c 0,3.29489 2.67103,5.96591 5.96591,5.96591 h 43.75 c 3.29488,0 5.96591,-2.67102 5.96591,-5.96591 v -43.75 c 0,-3.29488 -2.67103,-5.96591 -5.96591,-5.96591 z m 95.45454,0 h -43.75 c -3.29488,0 -5.96591,2.67103 -5.96591,5.96591 v 43.75 c 0,3.29489 2.67103,5.96591 5.96591,5.96591 h 43.75 c 3.29489,0 5.96591,-2.67102 5.96591,-5.96591 v -43.75 c 0,-3.29488 -2.67102,-5.96591 -5.96591,-5.96591 z M 74.14773,8.5 c 9.88464,0 17.89772,8.01308 17.89772,17.89773 v 43.75 c 0,9.88464 -8.01308,17.89772 -17.89772,17.89772 h -43.75 C 20.51308,88.04545 12.5,80.03237 12.5,70.14773 v -43.75 C 12.5,16.51308 20.51308,8.5 30.39773,8.5 Z m 95.45454,0 C 179.48692,8.5 187.5,16.51308 187.5,26.39773 v 43.75 c 0,9.88464 -8.01308,17.89772 -17.89773,17.89772 h -43.75 c -9.88464,0 -17.89772,-8.01308 -17.89772,-17.89772 v -43.75 C 107.95455,16.51308 115.96763,8.5 125.85227,8.5 Z M 74.14773,20.43182 h -43.75 c -3.29488,0 -5.96591,2.67103 -5.96591,5.96591 v 43.75 c 0,3.29488 2.67103,5.96591 5.96591,5.96591 h 43.75 c 3.29488,0 5.96591,-2.67103 5.96591,-5.96591 v -43.75 c 0,-3.29488 -2.67103,-5.96591 -5.96591,-5.96591 z m 95.45454,0 h -43.75 c -3.29488,0 -5.96591,2.67103 -5.96591,5.96591 v 43.75 c 0,3.29488 2.67103,5.96591 5.96591,5.96591 h 43.75 c 3.29489,0 5.96591,-2.67103 5.96591,-5.96591 v -43.75 c 0,-3.29488 -2.67102,-5.96591 -5.96591,-5.96591 z"
     id="🎨-Color"
     style="fill:#000000;fill-rule:nonzero;stroke:#000000;stroke-width:4.1;stroke-dasharray:none;stroke-opacity:1" /></svg>
