<?xml version="1.0" encoding="UTF-8" standalone="no"?>
<svg
   version="1.1"
   width="200"
   height="192"
   id="svg149"
   sodipodi:docname="appbar.rotation.svg"
   xml:space="preserve"
   inkscape:version="1.4.2 (f4327f4, 2025-05-13)"
   xmlns:inkscape="http://www.inkscape.org/namespaces/inkscape"
   xmlns:sodipodi="http://sodipodi.sourceforge.net/DTD/sodipodi-0.dtd"
   xmlns="http://www.w3.org/2000/svg"
   xmlns:svg="http://www.w3.org/2000/svg"><defs
     id="defs149"><marker
       style="overflow:visible"
       id="marker33"
       refX="0"
       refY="0"
       orient="auto-start-reverse"
       inkscape:stockid="Rounded arrow"
       markerWidth="0.5"
       markerHeight="0.5"
       viewBox="0 0 1 1"
       inkscape:isstock="true"
       inkscape:collect="always"
       preserveAspectRatio="xMidYMid"><path
         transform="scale(0.7)"
         d="m -0.21114562,-4.1055728 6.42229122,3.21114561 a 1,1 90 0 1 0,1.78885438 L -0.21114562,4.1055728 A 1.236068,1.236068 31.717474 0 1 -2,3 v -6 a 1.236068,1.236068 148.28253 0 1 1.78885438,-1.1055728 z"
         style="fill:context-stroke;fill-rule:evenodd;stroke:none"
         id="path33" /></marker><marker
       style="overflow:visible"
       id="RoundedArrow"
       refX="-1.0045195"
       refY="0.15706463"
       orient="184.22671039"
       inkscape:stockid="Rounded arrow"
       markerWidth="0.5"
       markerHeight="0.5"
       viewBox="0 0 1 1"
       inkscape:isstock="true"
       inkscape:collect="always"
       preserveAspectRatio="xMidYMid"
       markerUnits="strokeWidth"><path
         transform="scale(0.7)"
         d="m -0.21114562,-4.1055728 6.42229122,3.21114561 a 1,1 90 0 1 0,1.78885438 L -0.21114562,4.1055728 A 1.236068,1.236068 31.717474 0 1 -2,3 v -6 a 1.236068,1.236068 148.28253 0 1 1.78885438,-1.1055728 z"
         style="fill:context-stroke;fill-rule:evenodd;stroke:none"
         id="path8" /></marker></defs><sodipodi:namedview
     id="namedview149"
     pagecolor="#ffffff"
     bordercolor="#000000"
     borderopacity="0.25"
     inkscape:showpageshadow="2"
     inkscape:pageopacity="0.0"
     inkscape:pagecheckerboard="0"
     inkscape:deskcolor="#d1d1d1"
     inkscape:zoom="2.9720582"
     inkscape:cx="258.23855"
     inkscape:cy="103.80012"
     inkscape:window-width="2560"
     inkscape:window-height="1369"
     inkscape:window-x="-8"
     inkscape:window-y="-8"
     inkscape:window-maximized="1"
     inkscape:current-layer="g10" /><style
     type="text/css"
     id="style1">
<![CDATA[
	.st0{fill:#000000;}
]]>
</style><g
     id="g10"
     transform="translate(-0.37715925,4.2318867)"
     style="stroke:#000000;stroke-opacity:1"><path
       id="rect23"
       style="fill:none;stroke:#000000;stroke-width:9.954;stroke-linecap:butt;stroke-linejoin:miter;stroke-miterlimit:4;stroke-dasharray:29.86202172,9.954;stroke-dashoffset:0;stroke-opacity:1;paint-order:markers fill stroke"
       d="m 107.9714,79.074618 c -0.0991,2.233691 -0.15331,4.469633 -0.19141,6.705078 -0.0601,1.255475 -0.0283,2.499553 0.0957,3.748047 0.0341,0.519594 0.0723,0.55479 0.16602,1.023438 0.50222,2.511329 0.31418,4.568889 -0.30273,6.119139 0.0431,0.33631 0.0872,0.6717 0.13281,1.00781 0.74431,4.8346 0.9065,9.70999 0.96484,14.58204 -0.18858,5.77674 -0.51624,11.54738 -0.71289,17.32421 -0.13026,5.8053 -0.35059,11.60839 -0.54687,17.41211 -0.076,3.01401 -0.33293,6.01735 -0.63477,9.01758 0.0592,0.27331 0.11989,0.54661 0.17969,0.81836 0.43725,2.18711 0.91866,4.36149 1.40039,6.53906 0.4766,2.19757 0.71886,4.43278 0.88672,6.67188 0.091,1.83169 -0.057,3.661 -0.3086,5.47461 h 57.87305 c 9.5755,0 17.28516,-6.85337 17.28516,-15.36524 V 94.43985 c 0,-8.511879 -7.70966,-15.365232 -17.28516,-15.365232 z" /><path
       d="m 98.420663,11.199348 c 7.614977,0 13.848157,7.846187 14.353937,17.775536 l 0.0332,1.306482 V 161.71856 c 0,10.0999 -5.91539,18.36707 -13.401833,19.03791 l -0.985368,0.0442 H 24.887152 c -7.614723,0 -13.847762,-7.84568 -14.353998,-17.7751 L 10.5,161.71863 V 30.281366 c 0,-10.099645 5.915754,-18.366653 13.402141,-19.038001 l 0.985042,-0.04402 z m 0,12.721346 H 24.887195 c -2.427853,0 -4.434389,2.392885 -4.751928,5.497571 l -0.0438,0.863101 V 161.71856 c 0,3.22018 1.804218,5.8815 4.144981,6.303 l 0.650749,0.0576 h 73.53347 c 2.427913,0 4.434443,-2.39246 4.752253,-5.49731 l 0.0435,-0.86336 V 30.281366 c 0,-3.220197 -1.80384,-5.881417 -4.144798,-6.302578 z"
       fill="#212121"
       id="path1"
       style="display:inline;fill:#000000;fill-opacity:1;stroke-width:7.36406;stroke:#000000;stroke-opacity:1" /><path
       style="fill:none;fill-opacity:1;stroke:#000000;stroke-width:10;stroke-linecap:butt;stroke-linejoin:miter;stroke-miterlimit:4;stroke-dasharray:none;stroke-dashoffset:0;stroke-opacity:1;marker-start:url(#RoundedArrow);marker-end:url(#marker33);paint-order:markers fill stroke"
       d="m 142.72428,16.923166 c 0.87863,0.439314 32.6926,-0.940487 32.70474,33.639161"
       id="path32"
       sodipodi:nodetypes="cc" /></g></svg>
