<?xml version="1.0" encoding="UTF-8" standalone="no"?>
<svg
   version="1.1"
   width="200"
   height="192"
   id="svg149"
   sodipodi:docname="home.svg"
   xml:space="preserve"
   inkscape:version="1.4.2 (f4327f4, 2025-05-13)"
   xmlns:inkscape="http://www.inkscape.org/namespaces/inkscape"
   xmlns:sodipodi="http://sodipodi.sourceforge.net/DTD/sodipodi-0.dtd"
   xmlns="http://www.w3.org/2000/svg"
   xmlns:svg="http://www.w3.org/2000/svg"><defs
     id="defs149" /><sodipodi:namedview
     id="namedview149"
     pagecolor="#ffffff"
     bordercolor="#000000"
     borderopacity="0.25"
     inkscape:showpageshadow="2"
     inkscape:pageopacity="0.0"
     inkscape:pagecheckerboard="0"
     inkscape:deskcolor="#d1d1d1"
     inkscape:zoom="2.1015625"
     inkscape:cx="130.37918"
     inkscape:cy="66.379182"
     inkscape:window-width="1920"
     inkscape:window-height="1009"
     inkscape:window-x="-8"
     inkscape:window-y="-8"
     inkscape:window-maximized="1"
     inkscape:current-layer="svg149" /><g
     id="g2"
     transform="matrix(-1,0,0,1,224.13569,-2.7518176)"><g
       style="fill:none"
       id="g1"
       transform="matrix(10.937469,0,0,10.937469,20.368485,-13.374909)"><path
         d="m 14.1464,6.85355 c 0.1953,0.19527 0.5119,0.19527 0.7072,0 0.1952,-0.19526 0.1952,-0.51184 0,-0.7071 l -4,-4 c -0.1953,-0.19527 -0.5119,-0.19527 -0.7072,0 l -3.99995,4 c -0.19527,0.19526 -0.19527,0.51184 0,0.7071 0.19526,0.19527 0.51184,0.19527 0.7071,0 L 10,3.70711 V 9.99999 C 10,11.9648 9.75319,13.3808 9.23563,14.4734 8.72437,15.5528 7.92808,16.36 6.74275,17.0712 c -0.23679,0.1421 -0.31357,0.4492 -0.1715,0.686 0.14208,0.2368 0.44921,0.3136 0.686,0.1715 C 8.57192,17.1399 9.52563,16.1972 10.1394,14.9015 10.7468,13.6192 11,12.0351 11,9.99999 V 3.7071 Z"
         fill="#212121"
         id="path1" /></g><rect
       style="fill:#212121;stroke-width:1.80639;paint-order:markers fill stroke"
       id="rect1"
       width="18.022421"
       height="10.833529"
       x="1.6661352"
       y="196.04538"
       ry="5.4167643"
       transform="matrix(0.93025845,-0.36690492,0.41308381,0.91069301,0,0)" /><rect
       style="fill:#212121;stroke-width:1.80639;paint-order:markers fill stroke"
       id="rect1-9"
       width="18.022421"
       height="10.833529"
       x="23.802965"
       y="191.2213"
       ry="5.4167643"
       transform="matrix(0.97474939,-0.22330164,0.27189178,0.96232783,0,0)" /><rect
       style="fill:#212121;stroke-width:1.99496;paint-order:markers fill stroke"
       id="rect1-9-8"
       width="22.190008"
       height="10.731739"
       x="31.920601"
       y="183.65895"
       ry="5.3658695"
       transform="matrix(0.99760072,-0.06923007,0.16968808,0.98549782,0,0)" /></g></svg>
