<?xml version="1.0" encoding="UTF-8" standalone="no"?>
<svg
   viewBox="0 0 24 24"
   version="1.1"
   id="svg1"
   sodipodi:docname="favorites.svg"
   xml:space="preserve"
   inkscape:version="1.4.2 (f4327f4, 2025-05-13)"
   xmlns:inkscape="http://www.inkscape.org/namespaces/inkscape"
   xmlns:sodipodi="http://sodipodi.sourceforge.net/DTD/sodipodi-0.dtd"
   xmlns="http://www.w3.org/2000/svg"
   xmlns:svg="http://www.w3.org/2000/svg"><defs
     id="defs1" /><sodipodi:namedview
     id="namedview1"
     pagecolor="#ffffff"
     bordercolor="#000000"
     borderopacity="0.25"
     inkscape:showpageshadow="2"
     inkscape:pageopacity="0.0"
     inkscape:pagecheckerboard="0"
     inkscape:deskcolor="#d1d1d1"
     inkscape:zoom="23.776466"
     inkscape:cx="23.657847"
     inkscape:cy="12.386197"
     inkscape:window-width="2560"
     inkscape:window-height="1369"
     inkscape:window-x="-8"
     inkscape:window-y="-8"
     inkscape:window-maximized="1"
     inkscape:current-layer="svg1" /><path
     d="M 12.940293,3.4152702 11.996643,4.414101 11.05008,3.4143662 c -2.4134763,-2.54905355 -6.3264956,-2.54905355 -8.7399726,0 -2.41347664,2.5490543 -2.41347664,6.6818868 0,9.2309408 l 9.0779766,9.587931 c 0.336764,0.355683 0.882767,0.355683 1.219531,0 l 9.084987,-9.58971 c 2.408102,-2.557506 2.412226,-6.6787428 -0.0018,-9.2282578 -2.417872,-2.55369561 -6.332754,-2.55369185 -8.750621,0 z M 20.469698,11.359063 11.99785,20.301182 3.5296386,11.35727 c -1.7399487,-1.8376915 -1.7399487,-4.8171753 0,-6.6548653 1.7399481,-1.8376903 4.5609623,-1.8376903 6.3009102,0 l 1.5607702,1.6484452 c 0.34248,0.3617199 0.899775,0.3546718 1.233957,-0.015606 l 1.534548,-1.6319353 c 1.744341,-1.8423284 4.567218,-1.8423316 6.311562,0 1.740367,1.8381331 1.737393,4.8087759 -0.0018,6.6557554 z"
     id="🎨-Color"
     style="fill:#000000;fill-rule:nonzero;stroke:none;stroke-width:1.18164" /></svg>
