<?xml version="1.0" encoding="UTF-8" standalone="no"?>
<svg
   viewBox="0 0 24 24"
   version="1.1"
   id="svg1"
   sodipodi:docname="go_up.svg"
   xml:space="preserve"
   inkscape:version="1.4.2 (f4327f4, 2025-05-13)"
   xmlns:inkscape="http://www.inkscape.org/namespaces/inkscape"
   xmlns:sodipodi="http://sodipodi.sourceforge.net/DTD/sodipodi-0.dtd"
   xmlns="http://www.w3.org/2000/svg"
   xmlns:svg="http://www.w3.org/2000/svg"><defs
     id="defs1" /><sodipodi:namedview
     id="namedview1"
     pagecolor="#ffffff"
     bordercolor="#000000"
     borderopacity="0.25"
     inkscape:showpageshadow="2"
     inkscape:pageopacity="0.0"
     inkscape:pagecheckerboard="0"
     inkscape:deskcolor="#d1d1d1"
     inkscape:zoom="26.463365"
     inkscape:cx="9.8815854"
     inkscape:cy="14.642885"
     inkscape:window-width="2560"
     inkscape:window-height="1369"
     inkscape:window-x="-8"
     inkscape:window-y="-8"
     inkscape:window-maximized="1"
     inkscape:current-layer="svg1" /><g
     style="fill:none;stroke:#000000;stroke-opacity:1"
     id="g1"
     transform="matrix(1.4183202,0,0,1.2985131,-5.0198426,-2.9331598)"><path
       d="m 10,12.5 1.8939,-1.8939 c 0.0586,-0.0586 0.1536,-0.0586 0.2122,0 L 14,12.5"
       stroke="#222222"
       id="path1"
       style="display:inline;stroke:#000000;stroke-opacity:1" /><path
       d="M 12,15 V 10.5"
       stroke="#222222"
       id="path2"
       style="display:inline;stroke:#000000;stroke-opacity:1" /><path
       d="m 4.330131,6.7958093 c 0,-0.8591072 0,-1.2886609 0.1671929,-1.6167983 C 4.6443911,4.8903786 4.8790585,4.6557112 5.1676909,4.508644 5.4958284,4.3414511 5.9253821,4.3414511 6.7844891,4.3414511 h 2.6306321 c 0.3842196,0 0.576293,0 0.7507568,0.052963 0.154318,0.046878 0.297899,0.1237509 0.42256,0.2261997 0.140819,0.1157231 0.247379,0.2755733 0.460498,0.5952739 l 0.879479,1.3194834 c 0.213119,0.3197007 0.31968,0.4795509 0.460498,0.595274 0.124661,0.1024488 0.268242,0.1793215 0.422559,0.2261997 0.174464,0.052963 0.366518,0.052963 0.750726,0.052963 h 3.653313 c 0.859128,0 1.288641,0 1.616808,0.1671928 0.288591,0.1470673 0.52329,0.3817346 0.670347,0.6703773 0.167203,0.3281272 0.167203,0.7576808 0.167203,1.616788 V 16.20459 c 0,0.859127 0,1.28864 -0.167203,1.616808 -0.147057,0.288593 -0.381756,0.523289 -0.670347,0.670347 -0.328167,0.167203 -0.75768,0.167203 -1.616808,0.167203 H 6.7844891 c -0.859107,0 -1.2886607,0 -1.6167982,-0.167203 C 4.8790585,18.344688 4.6443911,18.109992 4.4973239,17.821399 4.330131,17.493231 4.330131,17.063718 4.330131,16.204591 Z"
       stroke="#222222"
       id="path3"
       style="display:inline;stroke-width:1.02265;stroke:#000000;stroke-opacity:1" /><path
       d="m 4.7989511,7.0833647 c 0,-0.8065943 0,-1.2098914 0.1569733,-1.5179715 C 5.0940021,5.2944033 5.3143254,5.07408 5.5853154,4.9360023 5.8933954,4.7790291 6.2966925,4.7790291 7.1032868,4.7790291 h 2.4698349 c 0.3607341,0 0.5410673,0 0.7048673,0.049726 0.144886,0.044013 0.279689,0.1161865 0.39673,0.2123733 0.132211,0.1086495 0.232258,0.2587289 0.432351,0.5588879 l 0.82572,1.23883 c 0.200094,0.3001589 0.300139,0.4502383 0.432351,0.5588878 0.117042,0.096187 0.251845,0.1683605 0.39673,0.2123733 0.1638,0.049726 0.344115,0.049726 0.704838,0.049726 h 3.430005 c 0.806612,0 1.209872,0 1.51798,0.1569732 0.270951,0.1380777 0.491304,0.358401 0.629372,0.6294005 0.156983,0.3080705 0.156983,0.7113676 0.156983,1.5179618 v 5.9528671 c 0,0.806614 0,1.209872 -0.156983,1.517982 -0.138068,0.270951 -0.358421,0.491303 -0.629372,0.629371 -0.308108,0.156982 -0.711368,0.156982 -1.51798,0.156982 H 7.1032868 c -0.8065943,0 -1.2098914,0 -1.5179714,-0.156982 -0.27099,-0.138068 -0.4913133,-0.35842 -0.629391,-0.629371 C 4.7989511,17.126908 4.7989511,16.72365 4.7989511,15.917036 Z"
       stroke="#222222"
       id="path4"
       style="display:inline;stroke-width:0.96014;stroke:#000000;stroke-opacity:1" /></g></svg>
