<?xml version="1.0" encoding="UTF-8" standalone="no"?>
<svg
   viewBox="0 0 24 24"
   width="24"
   height="24"
   fill="#000000"
   version="1.1"
   id="svg1"
   sodipodi:docname="hero.svg"
   inkscape:version="1.4.2 (f4327f4, 2025-05-13)"
   xmlns:inkscape="http://www.inkscape.org/namespaces/inkscape"
   xmlns:sodipodi="http://sodipodi.sourceforge.net/DTD/sodipodi-0.dtd"
   xmlns="http://www.w3.org/2000/svg"
   xmlns:svg="http://www.w3.org/2000/svg">
  <defs
     id="defs1" />
  <sodipodi:namedview
     id="namedview1"
     pagecolor="#ffffff"
     bordercolor="#000000"
     borderopacity="0.25"
     inkscape:showpageshadow="2"
     inkscape:pageopacity="0.0"
     inkscape:pagecheckerboard="0"
     inkscape:deskcolor="#d1d1d1"
     inkscape:zoom="33.625"
     inkscape:cx="12"
     inkscape:cy="12"
     inkscape:window-width="2560"
     inkscape:window-height="1369"
     inkscape:window-x="-8"
     inkscape:window-y="-8"
     inkscape:window-maximized="1"
     inkscape:current-layer="svg1" />
  <path
     d="M 23.943 7.493 C 23.944 7.493 23.945 7.493 23.945 7.492 C 23.946 7.489 23.948 7.487 23.949 7.484 C 23.952 7.477 23.958 7.472 23.96 7.465 C 23.962 7.46 23.964 7.456 23.964 7.453 C 23.969 7.447 23.971 7.439 23.973 7.435 C 23.976 7.429 23.977 7.424 23.98 7.417 C 23.982 7.413 23.983 7.408 23.986 7.401 C 23.987 7.395 23.988 7.391 23.988 7.387 C 23.991 7.379 23.992 7.373 23.993 7.369 C 23.993 7.361 23.994 7.355 23.996 7.351 C 23.997 7.347 23.997 7.339 23.997 7.335 C 23.997 7.329 23.997 7.32 23.999 7.315 C 23.999 7.311 23.999 7.309 23.999 7.304 C 23.999 7.301 23.999 7.301 23.999 7.299 C 23.999 7.293 23.997 7.287 23.997 7.279 C 23.997 7.275 23.997 7.269 23.996 7.263 C 23.996 7.258 23.994 7.253 23.993 7.248 C 23.993 7.24 23.992 7.234 23.991 7.229 C 23.988 7.224 23.988 7.22 23.987 7.215 C 23.986 7.209 23.983 7.201 23.982 7.195 C 23.98 7.192 23.979 7.188 23.977 7.183 C 23.974 7.176 23.971 7.171 23.969 7.163 C 23.968 7.159 23.964 7.156 23.963 7.151 C 23.96 7.147 23.958 7.139 23.954 7.135 C 23.951 7.129 23.949 7.123 23.945 7.119 C 23.943 7.114 23.94 7.111 23.938 7.105 C 23.932 7.099 23.928 7.095 23.924 7.09 C 23.922 7.086 23.921 7.081 23.915 7.079 C 23.911 7.075 23.907 7.069 23.903 7.063 C 23.9 7.061 23.897 7.056 23.892 7.053 C 23.888 7.051 23.884 7.047 23.88 7.041 C 23.875 7.039 23.871 7.033 23.867 7.031 C 23.863 7.027 23.858 7.023 23.853 7.021 C 23.849 7.016 23.843 7.013 23.838 7.009 C 23.835 7.008 23.834 7.007 23.834 7.007 L 20.828 5.129 C 20.826 5.127 20.823 5.127 20.821 5.125 C 20.817 5.122 20.812 5.117 20.808 5.115 C 20.806 5.115 20.804 5.114 20.802 5.113 C 20.795 5.11 20.792 5.11 20.788 5.107 C 20.785 5.106 20.782 5.103 20.776 5.102 C 20.774 5.101 20.773 5.099 20.769 5.097 C 20.764 5.096 20.758 5.094 20.753 5.093 C 20.751 5.091 20.75 5.091 20.747 5.091 C 20.745 5.091 20.745 5.091 20.745 5.091 C 20.743 5.091 20.741 5.09 20.739 5.087 C 20.732 5.086 20.726 5.086 20.719 5.082 C 20.716 5.082 20.713 5.082 20.711 5.082 C 20.709 5.082 20.708 5.082 20.705 5.082 C 20.699 5.077 20.692 5.077 20.685 5.077 C 20.68 5.077 20.675 5.075 20.668 5.075 C 20.664 5.074 20.657 5.074 20.651 5.074 C 20.645 5.074 20.643 5.074 20.635 5.074 C 20.629 5.074 20.625 5.074 20.62 5.074 C 20.617 5.074 20.613 5.074 20.612 5.075 C 20.611 5.075 20.609 5.075 20.609 5.075 C 20.606 5.075 20.604 5.077 20.601 5.077 C 20.596 5.077 20.591 5.077 20.586 5.077 C 20.585 5.077 20.584 5.077 20.583 5.079 C 20.577 5.079 20.575 5.079 20.573 5.082 C 20.572 5.082 20.569 5.082 20.567 5.082 C 20.561 5.082 20.556 5.086 20.552 5.086 C 20.548 5.086 20.541 5.09 20.534 5.091 C 20.529 5.093 20.524 5.094 20.517 5.095 C 20.515 5.097 20.512 5.097 20.508 5.099 C 20.507 5.101 20.505 5.102 20.505 5.102 C 20.496 5.106 20.493 5.107 20.487 5.11 C 20.485 5.111 20.481 5.113 20.476 5.114 C 20.476 5.114 20.476 5.115 20.475 5.115 L 15.092 7.986 L 11.895 4.076 C 11.895 4.076 11.895 4.076 11.895 4.076 C 11.893 4.074 11.893 4.073 11.892 4.073 C 11.89 4.07 11.888 4.066 11.887 4.063 C 11.88 4.058 11.875 4.053 11.871 4.046 C 11.866 4.044 11.864 4.04 11.859 4.038 C 11.853 4.034 11.851 4.029 11.845 4.025 C 11.839 4.02 11.833 4.017 11.828 4.014 C 11.828 4.014 11.828 4.014 11.828 4.013 C 11.824 4.01 11.82 4.006 11.816 4.004 C 11.811 4.001 11.807 3.998 11.8 3.996 C 11.795 3.992 11.791 3.991 11.788 3.985 C 11.783 3.984 11.776 3.981 11.77 3.98 C 11.767 3.977 11.761 3.976 11.755 3.973 C 11.751 3.972 11.747 3.969 11.741 3.967 C 11.733 3.964 11.729 3.962 11.723 3.961 C 11.723 3.961 11.723 3.961 11.72 3.961 C 11.715 3.958 11.711 3.958 11.705 3.957 C 11.698 3.957 11.694 3.956 11.691 3.956 C 11.688 3.953 11.687 3.953 11.684 3.952 L 1.166 2.073 C 1.162 2.072 1.159 2.072 1.157 2.071 C 1.147 2.071 1.143 2.07 1.138 2.07 C 1.129 2.069 1.125 2.069 1.119 2.069 C 1.113 2.069 1.107 2.069 1.103 2.069 C 1.098 2.069 1.09 2.069 1.085 2.069 C 1.08 2.069 1.073 2.07 1.067 2.07 C 1.063 2.07 1.056 2.071 1.05 2.072 C 1.045 2.073 1.038 2.073 1.034 2.073 C 1.027 2.076 1.023 2.079 1.018 2.079 C 1.01 2.083 1.007 2.084 0.999 2.084 C 0.994 2.087 0.99 2.087 0.985 2.088 C 0.979 2.09 0.974 2.093 0.967 2.095 C 0.962 2.098 0.959 2.1 0.954 2.103 C 0.947 2.106 0.942 2.108 0.938 2.11 C 0.931 2.112 0.926 2.115 0.922 2.118 C 0.918 2.123 0.912 2.126 0.908 2.127 C 0.902 2.132 0.898 2.136 0.891 2.14 C 0.889 2.143 0.887 2.143 0.884 2.146 C 0.883 2.146 0.882 2.148 0.881 2.15 C 0.874 2.152 0.87 2.158 0.865 2.163 C 0.862 2.167 0.858 2.169 0.854 2.171 C 0.85 2.176 0.845 2.183 0.841 2.187 C 0.838 2.19 0.835 2.194 0.83 2.198 C 0.826 2.204 0.822 2.208 0.821 2.213 C 0.818 2.216 0.813 2.223 0.811 2.227 C 0.806 2.23 0.803 2.235 0.802 2.242 C 0.799 2.247 0.795 2.25 0.793 2.256 C 0.791 2.262 0.787 2.266 0.785 2.271 C 0.782 2.276 0.781 2.282 0.779 2.286 C 0.777 2.292 0.775 2.296 0.773 2.303 C 0.77 2.307 0.767 2.314 0.766 2.32 C 0.765 2.324 0.764 2.331 0.763 2.334 C 0.762 2.341 0.759 2.348 0.759 2.354 C 0.759 2.354 0.758 2.356 0.758 2.358 C 0.757 2.362 0.757 2.367 0.757 2.37 C 0.755 2.375 0.755 2.383 0.753 2.388 C 0.753 2.394 0.75 2.401 0.75 2.406 C 0.75 2.41 0.75 2.415 0.75 2.424 C 0.75 2.428 0.75 2.433 0.75 2.44 C 0.753 2.447 0.753 2.45 0.753 2.455 C 0.755 2.463 0.755 2.468 0.757 2.474 C 0.758 2.481 0.759 2.485 0.759 2.491 C 0.761 2.495 0.762 2.503 0.763 2.508 C 0.764 2.512 0.766 2.52 0.766 2.524 C 0.768 2.529 0.77 2.533 0.773 2.54 C 0.775 2.546 0.778 2.55 0.779 2.554 C 0.782 2.561 0.782 2.567 0.786 2.57 C 0.787 2.577 0.791 2.583 0.795 2.587 C 0.797 2.591 0.799 2.597 0.802 2.603 C 0.805 2.607 0.807 2.611 0.811 2.615 C 0.815 2.623 0.819 2.626 0.822 2.631 C 0.826 2.635 0.826 2.64 0.83 2.642 L 3.075 5.451 L 0.352 5.451 C 0.349 5.451 0.346 5.451 0.344 5.451 C 0.335 5.451 0.33 5.451 0.324 5.451 C 0.318 5.451 0.311 5.453 0.307 5.453 C 0.302 5.454 0.294 5.454 0.29 5.455 C 0.285 5.457 0.278 5.459 0.272 5.46 C 0.267 5.461 0.263 5.462 0.257 5.462 C 0.25 5.465 0.245 5.466 0.239 5.47 C 0.234 5.471 0.23 5.471 0.225 5.474 C 0.219 5.475 0.213 5.479 0.206 5.481 C 0.204 5.483 0.2 5.486 0.193 5.488 C 0.188 5.49 0.184 5.494 0.18 5.495 C 0.172 5.499 0.167 5.502 0.164 5.507 C 0.16 5.509 0.153 5.511 0.149 5.514 C 0.145 5.519 0.137 5.523 0.134 5.527 C 0.13 5.529 0.128 5.531 0.124 5.534 C 0.117 5.541 0.113 5.543 0.11 5.548 C 0.106 5.551 0.1 5.554 0.096 5.56 C 0.093 5.565 0.09 5.567 0.088 5.571 C 0.081 5.578 0.076 5.583 0.073 5.587 C 0.071 5.59 0.07 5.591 0.066 5.594 C 0.066 5.598 0.066 5.599 0.065 5.6 C 0.06 5.605 0.057 5.61 0.053 5.618 C 0.052 5.622 0.048 5.625 0.047 5.628 C 0.042 5.634 0.038 5.642 0.036 5.646 C 0.034 5.65 0.033 5.655 0.03 5.662 C 0.028 5.667 0.026 5.671 0.023 5.679 C 0.021 5.682 0.018 5.687 0.017 5.692 C 0.016 5.699 0.014 5.704 0.014 5.708 C 0.01 5.713 0.01 5.722 0.009 5.726 C 0.008 5.73 0.008 5.738 0.008 5.743 C 0.004 5.747 0.004 5.752 0.004 5.763 C 0.004 5.766 0.004 5.769 0.001 5.778 C 0.001 5.783 0 5.789 0 5.798 C 0 5.799 0 5.8 0 5.802 C 0 5.804 0 5.807 0 5.811 C 0.001 5.819 0.001 5.824 0.001 5.83 C 0.004 5.838 0.004 5.842 0.004 5.847 C 0.004 5.852 0.006 5.859 0.008 5.864 C 0.008 5.869 0.009 5.878 0.01 5.883 C 0.01 5.887 0.012 5.892 0.014 5.898 C 0.014 5.903 0.017 5.91 0.018 5.916 C 0.021 5.922 0.023 5.924 0.025 5.93 C 0.028 5.936 0.029 5.942 0.03 5.946 C 0.034 5.951 0.036 5.958 0.038 5.962 C 0.041 5.966 0.045 5.97 0.047 5.978 C 0.05 5.982 0.053 5.986 0.056 5.991 C 0.057 5.998 0.061 6 0.065 6.005 C 0.069 6.01 0.072 6.015 0.076 6.019 C 0.077 6.023 0.084 6.028 0.088 6.031 C 0.09 6.038 0.094 6.04 0.097 6.047 C 0.104 6.05 0.108 6.055 0.11 6.058 C 0.114 6.06 0.117 6.066 0.124 6.068 C 0.129 6.072 0.133 6.076 0.137 6.082 C 0.141 6.083 0.144 6.086 0.146 6.086 L 8.237 11.972 L 6.768 21.524 C 6.768 21.525 6.768 21.525 6.768 21.527 L 6.766 21.53 C 6.766 21.53 6.766 21.531 6.766 21.533 C 6.766 21.542 6.764 21.553 6.764 21.562 C 6.764 21.566 6.764 21.57 6.764 21.574 C 6.764 21.581 6.763 21.59 6.764 21.598 C 6.764 21.602 6.764 21.609 6.764 21.613 C 6.766 21.62 6.766 21.624 6.766 21.629 C 6.768 21.638 6.769 21.643 6.77 21.649 C 6.77 21.656 6.771 21.658 6.772 21.662 C 6.774 21.67 6.777 21.677 6.778 21.682 C 6.78 21.689 6.782 21.693 6.783 21.696 C 6.784 21.7 6.787 21.709 6.788 21.714 C 6.79 21.718 6.792 21.723 6.794 21.729 C 6.799 21.734 6.8 21.737 6.802 21.742 C 6.806 21.75 6.807 21.753 6.81 21.758 C 6.812 21.762 6.817 21.768 6.819 21.771 C 6.822 21.777 6.826 21.781 6.83 21.789 C 6.831 21.791 6.835 21.795 6.839 21.797 C 6.842 21.802 6.846 21.81 6.849 21.815 C 6.855 21.817 6.858 21.82 6.86 21.822 C 6.865 21.83 6.869 21.834 6.874 21.838 C 6.879 21.84 6.883 21.845 6.886 21.85 C 6.89 21.854 6.894 21.857 6.899 21.86 C 6.907 21.865 6.911 21.87 6.918 21.873 C 6.921 21.875 6.924 21.877 6.927 21.878 C 6.936 21.887 6.945 21.89 6.954 21.894 C 6.954 21.895 6.956 21.897 6.959 21.897 C 6.959 21.897 6.959 21.897 6.959 21.897 C 6.969 21.901 6.983 21.91 6.993 21.913 C 6.999 21.913 7.002 21.914 7.004 21.915 C 7.012 21.917 7.023 21.921 7.028 21.925 C 7.038 21.926 7.043 21.926 7.047 21.929 C 7.052 21.929 7.058 21.93 7.062 21.93 C 7.062 21.931 7.064 21.93 7.065 21.931 C 7.082 21.933 7.099 21.933 7.115 21.933 C 7.115 21.933 7.116 21.933 7.116 21.933 C 7.116 21.933 7.116 21.933 7.116 21.933 C 7.129 21.933 7.144 21.933 7.159 21.931 C 7.163 21.931 7.164 21.931 7.165 21.93 C 7.196 21.926 7.224 21.916 7.251 21.908 C 7.255 21.907 7.256 21.907 7.259 21.905 C 7.272 21.897 7.283 21.892 7.296 21.883 C 7.298 21.881 7.3 21.88 7.303 21.878 C 7.313 21.873 7.323 21.867 7.331 21.858 C 7.335 21.857 7.339 21.854 7.34 21.854 C 7.35 21.842 7.361 21.835 7.37 21.825 C 7.373 21.821 7.375 21.819 7.377 21.817 C 7.385 21.808 7.396 21.796 7.403 21.782 C 7.403 21.782 7.403 21.782 7.404 21.782 C 7.413 21.77 7.421 21.757 7.429 21.742 C 7.429 21.741 7.431 21.741 7.431 21.739 L 10.002 16.593 L 18.527 12.889 C 18.53 12.889 18.53 12.886 18.534 12.884 C 18.54 12.881 18.547 12.877 18.554 12.874 C 18.554 12.874 18.554 12.874 18.557 12.874 C 18.558 12.874 18.558 12.873 18.559 12.873 C 18.562 12.87 18.564 12.87 18.566 12.869 C 18.57 12.865 18.577 12.86 18.582 12.857 C 18.585 12.855 18.588 12.854 18.591 12.852 C 18.593 12.85 18.593 12.85 18.597 12.85 C 18.599 12.846 18.603 12.841 18.607 12.838 C 18.607 12.837 18.609 12.837 18.609 12.837 C 18.61 12.836 18.61 12.836 18.611 12.836 C 18.617 12.833 18.619 12.831 18.621 12.825 C 18.626 12.824 18.627 12.821 18.63 12.817 C 18.63 12.817 18.63 12.817 18.633 12.817 C 18.634 12.817 18.634 12.816 18.637 12.814 C 18.638 12.814 18.638 12.813 18.638 12.812 C 18.642 12.809 18.643 12.805 18.645 12.802 C 18.647 12.8 18.65 12.798 18.654 12.794 C 18.658 12.79 18.659 12.788 18.662 12.783 C 18.664 12.781 18.665 12.78 18.665 12.778 C 18.668 12.778 18.669 12.776 18.669 12.774 C 18.67 12.773 18.673 12.77 18.674 12.77 C 18.674 12.769 18.674 12.769 18.674 12.768 C 18.678 12.762 18.681 12.759 18.683 12.757 C 18.683 12.754 18.684 12.754 18.685 12.753 C 18.688 12.748 18.689 12.742 18.692 12.738 C 18.695 12.734 18.698 12.73 18.701 12.725 C 18.701 12.725 18.701 12.725 18.701 12.725 C 18.701 12.725 18.701 12.724 18.701 12.722 C 18.705 12.717 18.706 12.714 18.708 12.71 C 18.709 12.704 18.712 12.698 18.713 12.696 C 18.713 12.694 18.713 12.694 18.715 12.694 C 18.717 12.687 18.719 12.681 18.722 12.677 C 18.722 12.676 18.722 12.674 18.722 12.674 C 18.722 12.674 18.722 12.673 18.723 12.673 L 18.725 12.665 C 18.725 12.665 18.725 12.665 18.725 12.665 L 20.305 7.657 L 23.646 7.657 C 23.646 7.657 23.646 7.657 23.647 7.657 C 23.647 7.657 23.648 7.657 23.648 7.657 C 23.662 7.657 23.674 7.656 23.687 7.655 C 23.69 7.655 23.694 7.655 23.695 7.653 C 23.708 7.652 23.715 7.65 23.728 7.647 C 23.731 7.646 23.734 7.646 23.739 7.645 C 23.748 7.642 23.759 7.638 23.768 7.635 C 23.771 7.635 23.774 7.633 23.778 7.631 C 23.79 7.627 23.803 7.62 23.815 7.615 C 23.815 7.615 23.815 7.615 23.815 7.615 C 23.826 7.608 23.838 7.6 23.848 7.593 C 23.852 7.589 23.855 7.588 23.86 7.585 C 23.867 7.58 23.873 7.573 23.88 7.569 C 23.884 7.565 23.887 7.563 23.891 7.557 C 23.9 7.55 23.907 7.543 23.915 7.532 C 23.915 7.531 23.916 7.531 23.92 7.529 C 23.928 7.517 23.935 7.508 23.943 7.493 Z M 20.047 6.143 L 18.247 11.839 L 15.549 8.541 L 20.047 6.143 Z M 1.964 2.931 L 11.136 4.571 L 8.516 11.123 L 1.964 2.931 Z M 17.593 12.149 L 9.124 11.5 L 11.731 4.985 L 17.593 12.149 Z M 9.986 15.834 L 9.078 12.202 L 16.945 12.807 L 9.986 15.834 Z M 9.37 16.281 L 7.804 19.415 L 8.701 13.594 L 9.37 16.281 Z M 6.705 9.989 L 1.435 6.155 L 3.641 6.155 L 6.705 9.989 Z M 20.841 5.966 L 22.418 6.953 L 20.529 6.953 L 20.841 5.966 Z"
     style="fill:#666666;transform-origin:0.285px -2.814px"
     transform="matrix(1, -0.000056000008, 0.000056000008, 1, -2e-12, 0)"
     id="path1" />
</svg>
