<?xml version="1.0" encoding="UTF-8" standalone="no"?>
<svg
   viewBox="0 0 24 24"
   version="1.1"
   id="svg1"
   sodipodi:docname="history.svg"
   xml:space="preserve"
   inkscape:version="1.4.2 (f4327f4, 2025-05-13)"
   xmlns:inkscape="http://www.inkscape.org/namespaces/inkscape"
   xmlns:sodipodi="http://sodipodi.sourceforge.net/DTD/sodipodi-0.dtd"
   xmlns="http://www.w3.org/2000/svg"
   xmlns:svg="http://www.w3.org/2000/svg"><defs
     id="defs1" /><sodipodi:namedview
     id="namedview1"
     pagecolor="#ffffff"
     bordercolor="#000000"
     borderopacity="0.25"
     inkscape:showpageshadow="2"
     inkscape:pageopacity="0.0"
     inkscape:pagecheckerboard="0"
     inkscape:deskcolor="#d1d1d1"
     inkscape:zoom="11.888233"
     inkscape:cx="1.8926278"
     inkscape:cy="-0.042058395"
     inkscape:window-width="2560"
     inkscape:window-height="1369"
     inkscape:window-x="-8"
     inkscape:window-y="-8"
     inkscape:window-maximized="1"
     inkscape:current-layer="svg1" /><path
     d="M 12,0.49999996 C 18.351277,0.49999996 23.5,5.6487224 23.5,12 23.5,18.351277 18.351277,23.5 12,23.5 9.8154944,23.5 7.7187341,22.888959 5.9060351,21.754277 5.1676431,21.292081 4.4837266,20.747257 3.8677981,20.131247 3.2509266,19.514307 2.7054585,18.829183 2.2429056,18.089457 1.1100175,16.277747 0.50000006,14.182666 0.50000006,12 c 0,-0.350313 0.01564,-0.698843 0.04692,-1.044878 0.047495,-0.527137 0.51338294,-0.915929 1.04051994,-0.8684 0.5271371,0.0475 0.9159405,0.513383 0.8684111,1.040508 -0.02599,0.288835 -0.0391,0.579935 -0.0391,0.87277 0,1.820658 0.5076099,3.56408 1.4513344,5.07326 0.385641,0.616722 0.8405811,1.188145 1.3551601,1.702782 0.5137855,0.513854 1.0842085,0.968265 1.699815,1.353607 1.510019,0.945208 3.2548214,1.453681 5.0770204,1.453681 5.292725,0 9.583329,-4.290604 9.583329,-9.58333 0,-5.2927254 -4.290604,-9.5833295 -9.583329,-9.5833295 -3.0632094,0 -5.8783864,1.4474821 -7.6695459,3.8358366 l 3.5221165,1.495e-4 c 0.529276,0 0.9583295,0.429065 0.9583295,0.958341 0,0.485162 -0.360525,0.886121 -0.8282875,0.949578 l -0.130042,0.0092 H 2.097304 c -0.4851734,0 -0.8861325,-0.3605251 -0.9495895,-0.8282876 l -0.0092,-0.1300419 v -5.749999 c 0,-0.52927595 0.4290535,-0.95834095 0.9583296,-0.95834095 0.485162,0 0.886121,0.3605365 0.9495894,0.82829895 l 0.0092,0.130042 -0.00115,3.311218 C 5.2099286,2.1053771 8.4687871,0.50044858 12.000207,0.50044858 Z M 11.041671,5.6111059 c 0.484908,0 0.886086,0.3607667 0.949577,0.8283566 l 0.0092,0.1299844 V 12 h 2.875 c 0.528999,0 0.958329,0.429329 0.958329,0.958329 0,0.484922 -0.360755,0.886087 -0.828345,0.949579 l -0.129984,0.0092 h -3.833331 c -0.48492,0 -0.886086,-0.360767 -0.949578,-0.828357 l -0.0092,-0.129985 V 6.5698839 c 0,-0.529 0.42934,-0.958341 0.958341,-0.958341 z"
     id="🎨-Color"
     style="display:inline;fill:#000000;fill-rule:nonzero;stroke:none;stroke-width:1.27778" /></svg>
