<?xml version="1.0" encoding="UTF-8" standalone="no"?>
<svg
   version="1.1"
   width="200"
   height="192"
   id="svg149"
   sodipodi:docname="home.svg"
   xml:space="preserve"
   inkscape:version="1.4.2 (f4327f4, 2025-05-13)"
   xmlns:inkscape="http://www.inkscape.org/namespaces/inkscape"
   xmlns:sodipodi="http://sodipodi.sourceforge.net/DTD/sodipodi-0.dtd"
   xmlns="http://www.w3.org/2000/svg"
   xmlns:svg="http://www.w3.org/2000/svg"><defs
     id="defs149" /><sodipodi:namedview
     id="namedview149"
     pagecolor="#ffffff"
     bordercolor="#000000"
     borderopacity="0.25"
     inkscape:showpageshadow="2"
     inkscape:pageopacity="0.0"
     inkscape:pagecheckerboard="0"
     inkscape:deskcolor="#d1d1d1"
     inkscape:zoom="4.203125"
     inkscape:cx="100.04461"
     inkscape:cy="96"
     inkscape:window-width="2560"
     inkscape:window-height="1369"
     inkscape:window-x="-8"
     inkscape:window-y="-8"
     inkscape:window-maximized="1"
     inkscape:current-layer="svg149" /><path
     d="m 88.03115,6.7135775 c 6.992951,-5.6108501 16.94475,-5.6108501 23.9377,0 l 65.875,52.8558335 C 182.36755,63.199053 185,68.685804 185,74.486204 v 95.883436 c 0,10.56203 -8.5629,19.12492 -19.125,19.12492 h -25.50001 c -10.5621,0 -19.12499,-8.56289 -19.12499,-19.12492 v -51.00003 c 0,-3.52071 -2.85429,-6.375 -6.375,-6.375 h -29.75 c -3.5207,0 -6.375,2.85429 -6.375,6.375 v 51.00003 c 0,10.56203 -8.5629,19.12492 -19.125001,19.12492 H 34.125 C 23.562545,189.49456 15,180.93167 15,170.36964 V 74.486204 c 0,-5.8004 2.632166,-11.287151 7.15622,-14.916793 z m 15.95875,9.9445745 c -2.33155,-1.870282 -5.64825,-1.870282 -7.9798,0 L 30.135453,69.513703 c -1.508112,1.2104 -2.385454,3.03875 -2.385454,4.972501 v 95.883436 c 0,3.5207 2.854231,6.37499 6.375001,6.37499 H 59.624999 C 63.145771,176.74463 66,173.89034 66,170.36964 v -51.00003 c 0,-10.5621 8.562899,-19.125 19.125,-19.125 h 29.75 c 10.5621,0 19.125,8.5629 19.125,19.125 v 51.00003 c 0,3.5207 2.8543,6.37499 6.37499,6.37499 H 165.875 c 3.5207,0 6.37501,-2.85429 6.37501,-6.37499 V 74.486204 c 0,-1.933751 -0.8772,-3.762101 -2.3851,-4.972501 z"
     id="🎨-Color"
     style="fill:#000000;fill-rule:nonzero;stroke:#000000;stroke-width:4.5;stroke-opacity:1;stroke-dasharray:none" /></svg>
