<?xml version="1.0" encoding="UTF-8" standalone="no"?>
<svg
   viewBox="0 0 24 24"
   version="1.1"
   id="svg1"
   sodipodi:docname="last_document.svg"
   xml:space="preserve"
   inkscape:version="1.4.2 (f4327f4, 2025-05-13)"
   xmlns:inkscape="http://www.inkscape.org/namespaces/inkscape"
   xmlns:sodipodi="http://sodipodi.sourceforge.net/DTD/sodipodi-0.dtd"
   xmlns="http://www.w3.org/2000/svg"
   xmlns:svg="http://www.w3.org/2000/svg"><defs
     id="defs1" /><sodipodi:namedview
     id="namedview1"
     pagecolor="#ffffff"
     bordercolor="#000000"
     borderopacity="0.25"
     inkscape:showpageshadow="2"
     inkscape:pageopacity="0.0"
     inkscape:pagecheckerboard="0"
     inkscape:deskcolor="#d1d1d1"
     inkscape:zoom="16.8125"
     inkscape:cx="12.520446"
     inkscape:cy="5.7992565"
     inkscape:window-width="2560"
     inkscape:window-height="1369"
     inkscape:window-x="-8"
     inkscape:window-y="-8"
     inkscape:window-maximized="1"
     inkscape:current-layer="svg1" /><path
     d="m 18.03793,0.500592 c 1.74671,0 3.162694,1.4159921 3.162694,3.1626945 V 20.337305 C 21.200624,22.084008 19.78464,23.5 18.03793,23.5 H 5.9620705 C 4.21536,23.5 2.799376,22.084008 2.799376,20.337305 V 3.6632865 c 0,-1.4478662 0.972922,-2.6684929 2.300652,-3.0437824 l -8e-4,1.8939285 C 4.7503003,2.7757303 4.524629,3.1931587 4.524629,3.6632865 V 20.337305 c 0,0.793958 0.6436277,1.437586 1.4375855,1.437586 H 18.038074 c 0.793957,0 1.437585,-0.643628 1.437585,-1.437586 V 3.6632865 c 0,-0.7939578 -0.643628,-1.4375855 -1.437585,-1.4375855 L 15.450298,2.225109 V 0.5 Z M 14.300196,0.5 v 9.3602909 c 0,0.8592741 -0.919382,1.1818641 -1.482685,0.8791481 L 12.722057,10.679514 10.277035,9.2011582 7.8870491,10.640384 C 7.3123781,11.055212 6.3570253,10.800499 6.2580586,9.9989403 L 6.249658,9.8602989 V 0.500008 Z M 12.575095,2.225109 H 7.974807 v 6.3521508 l 1.8093788,-1.09149 C 10.088142,7.326847 10.455911,7.3238468 10.724057,7.458328 l 1.851038,1.1197079 z"
     id="🎨Color"
     style="fill:#000000;fill-rule:nonzero;stroke:none;stroke-width:1.15007" /><path
     id="🎨-Color"
     style="fill:#000000;fill-rule:nonzero;stroke:none;stroke-width:0.693149"
     d="m 11.586548,13.945785 -0.06338,0.0065 -0.04388,0.0098 -0.0455,0.013 -0.06663,0.02926 -0.04063,0.02438 -0.05688,0.04063 -0.03088,0.02925 c -0.04582,0.04587 -0.08125,0.09814 -0.10563,0.154382 l -0.0032,0.0082 -0.02438,0.06663 -0.01463,0.07475 c -0.0018,0.01756 -0.0037,0.03599 -0.0032,0.05363 v 4.516091 l 0.0049,0.07151 c 0.03442,0.253739 0.251959,0.448521 0.51515,0.448521 l 0.07151,-0.0049 c 0.253747,-0.03442 0.448522,-0.251958 0.448522,-0.515149 v -3.251783 l 5.006864,5.005238 0.0585,0.05038 c 0.203552,0.150949 0.493136,0.13425 0.677658,-0.05038 l 0.04875,-0.0585 c 0.15094,-0.203551 0.134253,-0.493136 -0.05038,-0.677658 l -5.006894,-5.003615 h 3.255031 l 0.06987,-0.0049 c 0.253747,-0.03442 0.448522,-0.251968 0.448522,-0.515149 0,-0.287113 -0.231288,-0.520025 -0.5184,-0.520025 h -0.0017 z m 6.896829,0.897043 v 0.0017 h 0.0017 v -0.0017 z m 0.0017,0.0017 c 0.0026,0.0059 0.01712,0.02569 0.02438,0.0325 0.0022,0.0021 0.0043,0.0045 0.0065,0.0065 -0.0053,-0.009 -0.01033,-0.0158 -0.01463,-0.0195 -0.0042,-0.0056 -0.0081,-0.01301 -0.013,-0.01787 l -0.0017,-0.0016 z m -9.3767726,6.370229 c -0.00649,0.0023 -0.013263,0.0053 -0.019503,0.0082 l -0.00166,0.0017 v 0.0017 c 0.00275,-0.0016 0.010126,-0.0058 0.021126,-0.01137 z" /></svg>
