<?xml version="1.0" encoding="UTF-8" standalone="no"?>
<svg
   viewBox="0 0 24 24"
   version="1.1"
   id="svg1"
   sodipodi:docname="plus.svg"
   xml:space="preserve"
   inkscape:version="1.4.2 (f4327f4, 2025-05-13)"
   xmlns:inkscape="http://www.inkscape.org/namespaces/inkscape"
   xmlns:sodipodi="http://sodipodi.sourceforge.net/DTD/sodipodi-0.dtd"
   xmlns="http://www.w3.org/2000/svg"
   xmlns:svg="http://www.w3.org/2000/svg"><defs
     id="defs1" /><sodipodi:namedview
     id="namedview1"
     pagecolor="#ffffff"
     bordercolor="#000000"
     borderopacity="0.25"
     inkscape:showpageshadow="2"
     inkscape:pageopacity="0.0"
     inkscape:pagecheckerboard="0"
     inkscape:deskcolor="#d1d1d1"
     inkscape:zoom="11.888233"
     inkscape:cx="25.613563"
     inkscape:cy="19.725387"
     inkscape:window-width="2560"
     inkscape:window-height="1369"
     inkscape:window-x="-8"
     inkscape:window-y="-8"
     inkscape:window-maximized="1"
     inkscape:current-layer="svg1" /><g
     style="fill:#000000;stroke:#000000;stroke-width:0.69565223;stroke-dasharray:none;stroke-opacity:1"
     id="g1"
     transform="matrix(0.71875,0,0,0.71875,-0.9375,-0.9375)"><path
       class="clr-i-outline clr-i-outline-path-2"
       d="M 32.8,14.7 30,13.8 29.4,12.3 30.8,9.7 C 31.1,9.1 31,8.3 30.5,7.8 L 28.1,5.4 C 27.6,4.9 26.8,4.8 26.2,5.1 L 23.6,6.5 22.1,5.9 21.2,3.1 C 21,2.5 20.4,2 19.7,2 H 16.3 C 15.6,2 15,2.5 14.9,3.2 L 14,6 C 13.4,6.1 12.9,6.3 12.4,6.6 L 9.8,5.2 C 9.2,4.9 8.4,5 7.9,5.5 L 5.5,7.9 C 5,8.4 4.9,9.2 5.2,9.8 l 1.3,2.5 C 6.3,12.8 6.1,13.4 5.9,13.9 L 3.1,14.8 C 2.5,15 2,15.6 2,16.3 v 3.4 c 0,0.7 0.5,1.3 1.2,1.5 L 6,22.1 6.6,23.6 5.2,26.2 C 4.9,26.8 5,27.6 5.5,28.1 l 2.4,2.4 c 0.5,0.5 1.3,0.6 1.9,0.3 l 2.6,-1.4 1.5,0.6 0.9,2.9 c 0.2,0.6 0.8,1.1 1.5,1.1 h 3.4 c 0.7,0 1.3,-0.5 1.5,-1.1 l 0.9,-2.9 1.5,-0.6 2.6,1.4 c 0.6,0.3 1.4,0.2 1.9,-0.3 l 2.4,-2.4 c 0.5,-0.5 0.6,-1.3 0.3,-1.9 L 29.4,23.6 30,22.1 32.9,21.2 C 33.5,21 34,20.4 34,19.7 v -3.4 c 0,-0.7 -0.5,-1.4 -1.2,-1.6 z M 32,19.4 28.4,20.5 28.3,21 c -0.3,0.7 -0.6,1.4 -0.9,2.1 l -0.3,0.5 1.8,3.3 -2,2 -3.3,-1.8 -0.5,0.3 c -0.7,0.4 -1.4,0.7 -2.1,0.9 L 20.5,28.4 19.4,32 H 16.6 L 15.5,28.4 15,28.3 C 14.3,28 13.6,27.7 12.9,27.4 l -0.5,-0.3 -3.3,1.8 -2,-2 1.8,-3.3 -0.3,-0.5 C 8.2,22.4 7.9,21.7 7.7,21 L 7.6,20.5 4,19.4 v -2.8 l 3.4,-1 0.2,-0.5 c 0.2,-0.8 0.5,-1.5 0.9,-2.2 l 0.3,-0.5 -1.7,-3.3 2,-2 3.2,1.8 0.5,-0.3 C 13.5,8.2 14.2,7.9 15,7.7 L 15.5,7.5 16.6,4 h 2.8 l 1.1,3.5 0.5,0.2 c 0.7,0.2 1.4,0.5 2.1,0.9 l 0.5,0.3 3.3,-1.8 2,2 -1.8,3.3 0.3,0.5 c 0.4,0.7 0.7,1.4 0.9,2.1 l 0.1,0.5 3.6,1.1 z"
       id="path2"
       inkscape:label="path2"
       style="display:inline;stroke:#000000;stroke-width:0.69565223;stroke-dasharray:none;stroke-opacity:1" /><path
       d="m 25.693177,17.999382 a 1.272408,1.272408 0 0 1 -1.272408,1.272408 h -5.127928 v 5.129163 a 1.272408,1.272408 0 0 1 -2.542344,0 V 19.27179 h -5.131634 a 1.272408,1.272408 0 1 1 0,-2.543581 h 5.1304 v -5.129163 a 1.272408,1.272408 0 0 1 2.542344,0 v 5.129163 h 5.1304 a 1.272408,1.272408 0 0 1 1.27117,1.272408 z"
       id="path1-2"
       style="fill:#000000;stroke-width:0.69565223;stroke:#000000;stroke-dasharray:none;stroke-opacity:1"
       inkscape:label="plus" /></g></svg>
